<svg xmlns="http://www.w3.org/2000/svg" width="30" height="30" viewBox="0 0 30 30" fill="none">
  <g opacity="0.6">
    <path fill-rule="evenodd" clip-rule="evenodd" d="M22.0204 13.1407C24.0253 13.1407 25.6507 14.766 25.6507 16.7709V24.0315C25.6507 26.0364 24.0253 27.6617 22.0204 27.6617H7.49939C5.49446 27.6617 3.86914 26.0364 3.86914 24.0315V16.7709C3.86914 14.766 5.49446 13.1407 7.49939 13.1407V9.51044C7.49939 5.50058 10.75 2.24994 14.7599 2.24994C18.7698 2.24994 22.0204 5.50058 22.0204 9.51044V13.1407ZM14.7599 4.67011C17.4331 4.67011 19.6002 6.8372 19.6002 9.51044V13.1407H9.91956V9.51044C9.91956 6.8372 12.0867 4.67011 14.7599 4.67011Z" fill="#292941"/>
  </g>
</svg>