<svg xmlns="http://www.w3.org/2000/svg" width="101" height="109" viewBox="0 0 101 109" fill="none">
  <g clip-path="url(#clip0_505_24408)">
    <path d="M38.1669 90.9691C48.7602 94.6803 60.3384 94.4268 70.7592 90.2551C81.1801 86.0834 89.7371 78.2761 94.8469 68.2791C99.9566 58.2815 101.273 46.7706 98.5532 35.8768C95.833 24.9831 89.26 15.444 80.0507 9.02523C70.8415 2.6064 59.6196 -0.257521 48.462 0.963522C37.3046 2.18457 26.9671 7.40792 19.3628 15.6667C11.7586 23.9256 7.40249 34.6607 7.10078 45.8852C6.79906 57.1097 10.5722 68.0636 17.7218 76.7193L24.8796 70.8022C19.1599 63.8774 16.1414 55.1145 16.3828 46.1349C16.6241 37.1553 20.109 28.5672 26.1924 21.9601C32.2758 15.353 40.5458 11.1744 49.4718 10.1976C58.3974 9.22069 67.3751 11.5119 74.7424 16.6469C82.1097 21.7819 87.3683 29.4132 89.5447 38.1282C91.7212 46.8433 90.6674 56.0519 86.5796 64.0497C82.4918 72.0479 75.6458 78.2934 67.3097 81.6308C58.973 84.9681 49.7102 85.1713 41.2356 82.2021L38.1669 90.9691Z" fill="#2FACE1"/>
    <path d="M29.4953 99.4792C22.3896 96.7205 16.3494 91.7654 12.2539 85.3346L42.4458 66.091L29.4953 99.4792Z" fill="#2FACE1"/>
    <path d="M30.7228 54.3504C33.1672 54.3504 35.399 53.1171 36.483 51.0332L34.7188 50.0125C33.9111 51.4372 32.4657 52.309 30.6377 52.309C27.8533 52.309 25.7064 49.9912 25.7064 46.9504C25.7064 43.9522 27.8745 41.6556 30.6377 41.6556C32.4657 41.6556 33.8898 42.5275 34.7188 43.9522L36.483 42.9315C35.399 40.8476 33.1672 39.593 30.7228 39.593C26.7055 39.593 23.4746 42.8464 23.4746 46.9504C23.4746 51.097 26.7055 54.3504 30.7228 54.3504ZM40.1561 54.0952V48.928C40.1561 46.9079 41.4527 45.4194 43.3019 45.4194C45.2787 45.4194 46.299 47.0142 46.299 48.8642V54.0952H48.4033V48.6516C48.4033 45.4619 46.6816 43.4206 43.6208 43.4206C42.2179 43.4206 40.9638 43.9735 40.1561 44.8453V38.8913H38.0518V54.0952H40.1561ZM55.1293 54.3504C56.8297 54.3504 58.2113 53.5424 58.9977 52.2665V54.0952H60.9958V48.8642C60.9958 45.7596 58.5939 43.4206 55.4482 43.4206C52.2811 43.4206 49.9004 45.8872 49.9004 48.8642C49.9004 51.8837 52.111 54.3504 55.1293 54.3504ZM55.4482 52.3516C53.5139 52.3516 52.0048 50.778 52.0048 48.8855C52.0048 46.9717 53.5139 45.3982 55.4482 45.3982C57.4036 45.3982 58.8915 46.9717 58.8915 48.8855C58.8915 50.778 57.4036 52.3516 55.4482 52.3516ZM67.8999 54.3717C68.6651 54.3717 69.4941 54.1378 70.0255 53.7763V51.8412C69.5153 52.2027 68.7714 52.4579 68.0912 52.4579C66.8371 52.4579 66.0294 51.6498 66.0294 50.2889V45.5045H70.0255V43.6757H66.0294V40.9752H63.9251V43.6757H61.8633V45.5045H63.9251V50.3527C63.9251 52.7343 65.3067 54.3717 67.8999 54.3717ZM73.9829 54.0952L76.1085 50.9481C76.3423 50.5866 76.5123 50.2039 76.6186 49.7999H77.6601C77.7664 50.2039 77.9365 50.5866 78.1703 50.9481L80.2958 54.0952H82.677L80.0408 50.1401C79.7219 49.6723 79.5731 49.2682 79.5731 48.8855C79.5731 48.524 79.7007 48.1625 79.9982 47.716L82.677 43.6757H80.2746L78.1703 46.8441C77.9577 47.1631 77.8089 47.5246 77.7026 47.8861H76.5761C76.4911 47.5246 76.321 47.1631 76.1085 46.8441L73.9829 43.6757H71.6023L74.2805 47.716C74.5781 48.1625 74.7056 48.524 74.7056 48.8855C74.7056 49.2682 74.5568 49.6723 74.238 50.1401L71.6023 54.0952H73.9829Z" fill="#2FACE1"/>
  </g>
  <defs>
    <clipPath id="clip0_505_24408">
      <rect width="100.125" height="108" fill="white" transform="translate(0.25 0.375)"/>
    </clipPath>
  </defs>
</svg>